<?xml version="1.0" encoding="UTF-8"?>
<!DOCTYPE svg PUBLIC "-//W3C//DTD SVG 1.1//EN" "http://www.w3.org/Graphics/SVG/1.1/DTD/svg11.dtd">
<!-- Creator: CorelDRAW 2021 (64-Bit) -->
<svg xmlns="http://www.w3.org/2000/svg" xml:space="preserve" width="30.3163mm" height="25.3118mm" version="1.1" style="shape-rendering:geometricPrecision; text-rendering:geometricPrecision; image-rendering:optimizeQuality; fill-rule:evenodd; clip-rule:evenodd"
viewBox="0 0 24003.08 20040.74"
 xmlns:xlink="http://www.w3.org/1999/xlink"
 xmlns:xodm="http://www.corel.com/coreldraw/odm/2003">
 <defs>
  <style type="text/css">
   <![CDATA[
    .fil2 {fill:#858F99;fill-rule:nonzero}
    .fil1 {fill:#97A2AF;fill-rule:nonzero}
    .fil0 {fill:#A4B0C1;fill-rule:nonzero}
    .fil3 {fill:#B9C6D6;fill-rule:nonzero}
   ]]>
  </style>
 </defs>
 <g id="Layer_x0020_1">
  <metadata id="CorelCorpID_0Corel-Layer"/>
  <g id="_2578068166720">
   <path class="fil0" d="M515.04 11710.45c-169.2,-253.2 -345.52,-508.54 -434.44,-799.67 -97.54,-318.13 -85.03,-658.19 -71.26,-990.64 91.29,-2231.01 238.08,-4621.16 1602.99,-6387.56 1092.86,-1412.73 2792.76,-2191.58 4423.54,-2917.93 189.07,-83.85 380.04,-168.64 584.24,-197.07 162.63,-22.57 327.15,-8.79 489.7,4.91 3892.19,329.21 7784.46,658.19 11677.59,987.32 151.23,12.98 310.05,27.95 438.63,110.29 109.66,70.31 185.27,182.02 258.11,290.73 1576.94,2383.26 3022.45,4853.78 4327.97,7396.42 77.51,150.91 156.05,308.15 161.68,477.59 6.65,188.91 -77.51,367.69 -159.78,537.36 -639.98,1304.73 -1329.2,2585.32 -2064.74,3837.95 -546.39,928.81 -1137.28,1864.11 -1994.75,2515.41 -569.19,431.74 -1231.89,719.71 -1860.55,1057.07 -784.71,420.66 -1525.87,922.95 -2208.44,1496.1 -308.23,259.38 -614.56,539.11 -992.7,679.8 -262.78,97.94 -547.34,122.48 -827.23,142.99 -2740.66,199.13 -5505.94,64.53 -8214.54,-399.76 -465.16,-79.57 -943.53,-175.37 -1329.2,-446.31 -977.58,-687.24 -1215.82,-2380.65 -1691.35,-3416.66 -633.4,-1380.27 -1266.33,-2706.38 -2115.49,-3978.33z"/>
   <path class="fil1" d="M23973.79 9684.83c-5.62,-169.44 -84.16,-326.68 -161.68,-477.59 -1305.52,-2542.64 -2751.03,-5013.16 -4327.97,-7396.42 -57.72,-85.27 -115.36,-171.97 -191.92,-239.59 -757.31,1232.05 -1826.5,2273.37 -3085.79,2985.63 1134.43,1190.4 1919.14,2662.99 2690.62,4115.38 407.44,767.61 822.48,1559.99 911.31,2424.67 92.64,909.73 -185.27,1811.93 -459.46,2684.13 -57.64,182.66 -118.13,371.65 -248.61,511.79 -138,148.14 -335.62,222.72 -529.45,281.94 -717.57,219.47 -1472.9,293.11 -2190.47,513.22 -717.57,220.03 -1427.53,625.33 -1765.06,1295.55 -320.5,638.39 -398.02,1576.94 -1094.76,1736.16 -229.77,52.73 -469.83,-7.68 -700.54,-58.35 -1018.2,-223.51 -2069.49,-261.6 -3089.59,-477.27 -1020.02,-215.52 -2048.67,-643.22 -2689.59,-1465.14 -340.38,-435.78 -551.22,-955.73 -758.26,-1468.31 -585.19,-1452.79 -1171.32,-2905.58 -1757.46,-4358.37 -1407.66,104.83 -2986.5,281.23 -4313.16,794.92 -19.08,7.36 -37.77,14.88 -55.9,22.49 95.56,211.56 229.45,406.88 358.98,600.78 849.16,1271.95 1482.09,2598.06 2115.49,3978.33 475.53,1036.01 713.77,2729.42 1691.35,3416.66 385.66,270.94 864.04,366.74 1329.2,446.31 2708.59,464.29 5473.88,598.88 8214.54,399.76 279.89,-20.51 564.44,-45.05 827.23,-142.99 378.14,-140.69 684.47,-420.42 992.7,-679.8 682.57,-573.15 1423.73,-1075.44 2208.44,-1496.1 628.65,-337.37 1291.35,-625.33 1860.55,-1057.07 857.47,-651.3 1448.36,-1586.6 1994.75,-2515.41 735.54,-1252.64 1424.76,-2533.22 2064.74,-3837.95 82.26,-169.67 166.43,-348.45 159.78,-537.36z"/>
   <path class="fil2" d="M6161.6 17873.47c433.96,-426.04 840.45,-882.25 1212.02,-1363.8 252.41,151.38 548.29,211.95 836.65,269.83 1963.63,393.34 3937.56,772.67 5835,1413.44 -1441.71,86.14 -2889.11,173.08 -4302.48,469.67 -574.81,120.74 -1195.95,312.66 -1513.6,807.27 -95.49,149.25 -172.05,332.22 -335.62,400.39 -85.11,35.23 -179.65,32.7 -271.33,28.58 -982.25,-42.91 -1958.88,-193.9 -2908.04,-449.24 -135.15,-36.5 -659.85,-187.25 -642.83,-393.42 10.37,-126.44 434.83,-114.41 544.49,-147.11 601.26,-179.89 1105.21,-604.03 1545.74,-1035.62z"/>
   <path class="fil2" d="M17338.09 17879.41c325.17,-166.66 699.59,-204.19 1051.29,-301.9 554.94,-154.23 1066.34,-465.63 1456.83,-888.67 54.79,-59.62 109.66,-123.91 131.43,-201.66 47.27,-161.99 -52.02,-325.89 -139.9,-469.91 -286.54,-469.91 -489.78,-990.17 -599.44,-1529.75 -13.22,-69.91 -37.77,-153.2 -105.86,-172.68 -56.77,-16.23 -112.51,20.74 -161.68,53.29 -706.17,470.54 -1640.28,342.04 -2464.65,546.55 -763.89,189.7 -1446.46,688.83 -1859.6,1359.44 100.24,-163.42 66.19,-165.71 277.99,-123.59 143.7,28.74 286.46,69.99 425.41,117.58 272.28,93.66 534.12,219.71 777.11,373.39 493.5,310.53 915.11,735.46 1211.07,1237.91z"/>
   <path class="fil2" d="M19772.5 10937.62c-27.47,982.33 -143.7,1962.13 -346.08,2923.71 287.41,-599.04 780.91,-1082.96 1344.4,-1434.74 563.41,-351.86 1195.87,-579.25 1836.87,-755.1 177.75,-48.77 361.12,-96.04 509.57,-205.7 159.78,-118.45 262.86,-297.7 353.6,-474.74 190.97,-370.38 520.9,-916.93 532.22,-1332.21 -699.59,198.73 -1434.11,280.68 -2136.55,489.54 -362.07,107.28 -719.47,227.71 -1072.12,361.04 -109.66,41.41 -1020.1,335.31 -1021.92,428.18z"/>
   <path class="fil3" d="M3028.54 10435.01c539.82,-83.45 1103.31,-138.48 1625.16,25.34 -43.47,-1202.2 190.02,-2413.43 676.87,-3513.25 113.46,-253.6 239.19,-504.11 299.68,-774.65 61.52,-270.7 49.17,-571.01 -102.06,-803.63 54.79,295.01 -173.95,571.41 -428.26,730.24 -254.31,158.75 -552.09,252.65 -777.11,450.75 -322.4,282.97 -441.56,723.98 -571.01,1132.61 -148.45,469.04 -330,927.62 -542.67,1371.48 -84.16,175.85 -185.35,361.99 -363.02,441.96 -155.1,69.52 -333.72,43.31 -501.1,65.64 -292.08,38.88 -542.67,223.04 -778.06,401.02 -415.83,314.33 -1022.31,637.36 -1337.27,1039.1 319.79,147.11 887.95,-157.88 1207.74,-240.06 524.7,-134.76 1056.04,-243.86 1591.11,-326.52z"/>
   <path class="fil3" d="M5861.92 5250.29c534.12,-326.04 1149.63,-490.49 1761.26,-620.66 2082.71,-442.91 4240.09,-533.48 6352.09,-266.58 793.18,100.16 1609.08,249.09 2381.44,42.83 681.7,-182.34 1268.79,-631.35 1731.09,-1165.15 462.31,-533.8 813.92,-1152.8 1161.9,-1767.36 -3398.77,-451.78 -6797.45,-903.55 -10196.14,-1355.41 -704.35,-93.59 -1424.68,-186.85 -2121.43,-45.45 -752.56,152.81 -1421.91,567.93 -2069.49,980.51 -981.38,626.2 -1956.98,1264.2 -2924.11,1913.75 -218.45,146.95 -1031.18,1523.34 -902.6,1479.16 483.76,-166.9 1441.47,-730.31 1977.49,-670.7 543.62,60.49 1077.74,220.9 1564.67,470.54 122.88,62.79 1348.12,965.39 1283.83,1004.5z"/>
   <path class="fil1" d="M16463.6 8459.59c-169.28,77.75 -334.67,191.37 -408.47,362.62 -103.01,238.79 5.7,524.38 184.4,712.82 179.65,188.28 418.84,305.38 641.88,439.19 346.08,207.44 662.78,463.49 937.83,758.03 60.57,64.45 123.91,134.36 210.84,153.44 157.88,35.07 296.83,-118.53 350.75,-271.41 120.11,-339.35 14.17,-714.08 -113.46,-1050.34 -113.46,-296.27 -242.91,-586.14 -388.51,-867.68 -283.61,-546.23 -919.86,-464.21 -1415.26,-236.66z"/>
   <path class="fil1" d="M14158.72 7858.56c-99.29,65.56 -200.47,133.57 -268.48,231.19 -67.14,97.86 -93.59,233.73 -32.15,335.62 53.84,90.74 161.68,133.89 264.68,158.59 328.97,79.25 677.82,32.3 998.32,-75.77 321.45,-108.15 618.28,-275.13 913.29,-441.01 67.14,-37.61 138,-79.73 170.15,-149.64 48.22,-104.99 -16.07,-233.65 -113.46,-296.67 -96.44,-63.02 -216.47,-76.72 -330.87,-88.6 -637.2,-66.67 -1053.19,-36.58 -1601.48,326.28z"/>
   <path class="fil1" d="M16819.96 6829.76c0.95,-106.17 -163.5,-143.07 -240.06,-69.2 -75.69,73.79 -77.59,195.41 -57.72,299.6 52.97,274.34 223.12,523.83 460.41,672.2 76.56,48.06 175.85,85.98 255.26,43.63 43.47,-22.8 73.71,-65.56 91.69,-111 84.16,-211.48 -54.79,-440.93 -187.17,-626.12 -76.56,-106.65 -153.13,-213.3 -228.82,-319.87l-93.59 110.77z"/>
   <path class="fil1" d="M13183.04 12897.14c-190.97,82.5 -383.84,222.56 -419.71,428.02 -27.47,155.9 45.37,316.15 155.03,430.24 109.66,114.01 252.41,189.23 395.16,257.56 194.77,93.35 398.02,179.09 613.53,190.58 214.64,11.48 446.23,-63.97 571.96,-239.03 137.13,-191.21 119.16,-464.52 0,-667.29 -304.35,-516.15 -790.33,-626.12 -1315.98,-400.07z"/>
  </g>
 </g>
</svg>
