<?xml version="1.0" encoding="UTF-8"?>
<!DOCTYPE svg PUBLIC "-//W3C//DTD SVG 1.1//EN" "http://www.w3.org/Graphics/SVG/1.1/DTD/svg11.dtd">
<!-- Creator: CorelDRAW 2021 (64-Bit) -->
<svg xmlns="http://www.w3.org/2000/svg" xml:space="preserve" width="30.316mm" height="24.6764mm" version="1.1" style="shape-rendering:geometricPrecision; text-rendering:geometricPrecision; image-rendering:optimizeQuality; fill-rule:evenodd; clip-rule:evenodd"
viewBox="0 0 679.1 552.77"
 xmlns:xlink="http://www.w3.org/1999/xlink"
 xmlns:xodm="http://www.corel.com/coreldraw/odm/2003">
 <defs>
  <style type="text/css">
   <![CDATA[
    .fil11 {fill:#FEFEFE;fill-rule:nonzero}
    .fil6 {fill:#E4E5E6;fill-rule:nonzero}
    .fil0 {fill:#D6D7D9;fill-rule:nonzero}
    .fil9 {fill:#C3C5C7;fill-rule:nonzero}
    .fil13 {fill:#BDBFC1;fill-rule:nonzero}
    .fil5 {fill:#AFB1B4;fill-rule:nonzero}
    .fil7 {fill:#A2A4A6;fill-rule:nonzero}
    .fil10 {fill:#96989A;fill-rule:nonzero}
    .fil2 {fill:#FBC9B4;fill-rule:nonzero}
    .fil3 {fill:#D4AC9B;fill-rule:nonzero}
    .fil8 {fill:#F26D4E;fill-rule:nonzero}
    .fil1 {fill:#F15D44;fill-rule:nonzero}
    .fil4 {fill:#F05540;fill-rule:nonzero}
    .fil12 {fill:#535658;fill-rule:nonzero}
   ]]>
  </style>
 </defs>
 <g id="Layer_x0020_1">
  <metadata id="CorelCorpID_0Corel-Layer"/>
  <g id="_2578736598256">
   <path class="fil0" d="M0.04 108.9c0.14,-3.89 0.63,-7.9 1.52,-12.05 4.09,-19 17.42,-39.27 33,-53.64 -6.98,10.28 -12.27,21.46 -14.58,32.23 -0.89,4.14 -1.39,8.15 -1.53,12.04 -1.91,54.13 65.95,84.04 109.17,97.95l0 0c6.14,1.98 12.32,3.85 18.52,5.66 18.25,5.32 36.67,10.09 55,15.17 -0.01,0 -0.01,0 -0.02,-0.01 13.34,3.71 26.63,7.59 39.76,12.01 17.55,5.9 34.17,14.02 50.72,22.25l-12.95 24.14c-18.37,-9.13 -36.71,-18.42 -56.18,-24.98 -13.34,-4.48 -26.83,-8.4 -40.37,-12.16 -8.26,-2.29 -16.55,-4.53 -24.82,-6.77 -2.37,-0.64 -4.72,-1.28 -7.08,-1.93 -2.39,-0.65 -4.79,-1.32 -7.18,-1.99 -3.84,-1.06 -7.67,-2.15 -11.49,-3.24 -1.84,-0.54 -3.69,-1.06 -5.52,-1.59 -5.62,-1.66 -11.22,-3.35 -16.8,-5.14 -43.21,-13.9 -111.07,-43.81 -109.16,-97.94zm18.95 355.12c0.76,-21.66 13.2,-40.48 30.13,-56.21 -6.9,10.61 -11.27,22.21 -11.72,34.77l0 0.03 0 0c-0.26,7.5 0.87,15.32 3.69,23.48l0 0c8.41,24.3 33.13,48.85 56.1,59.1 8.72,3.89 17.29,5.83 25.68,6.11 27.52,0.96 53.04,-15.67 74.74,-38.13 -30.89,39.94 -72.96,73.94 -118.82,53.44 -22.97,-10.27 -47.7,-34.8 -56.11,-59.1 -2.83,-8.16 -3.96,-15.99 -3.69,-23.5zm45.84 -398.37c1.92,-4.79 4.53,-9.25 7.42,-12.5 28.32,-31.77 78.22,-3.24 101.26,20.24 12.71,12.97 23.82,31.33 23.17,49.92 -0.11,3.08 -0.54,6.16 -1.34,9.23 -2.79,10.7 -9.88,19.4 -19.2,24.07 0.3,-0.87 0.56,-1.76 0.79,-2.66 0.8,-3.07 1.23,-6.15 1.34,-9.23 0.66,-18.59 -10.47,-36.96 -23.18,-49.93 -20.28,-20.66 -61.39,-45.26 -90.27,-29.15zm25 356c5.2,-8.63 12.32,-16.29 19.98,-22.78 15.34,-13 35.68,-28.15 55.42,-33.18 18.45,-4.72 36.28,5.41 43.03,22.5 2.31,5.84 3.19,11.91 2.97,18.01 -0.55,15.58 -8.24,31.28 -17.5,43.35 -3.87,5.03 -8.7,10.38 -14.22,15.52 7.28,-11.07 12.84,-24.29 13.3,-37.44 0.22,-6.1 -0.66,-12.18 -2.97,-18.01 -6.76,-17.09 -24.58,-27.23 -43.03,-22.5 -19.75,5.02 -40.09,20.19 -55.43,33.18 -0.53,0.44 -1.05,0.9 -1.57,1.35zm185.04 -48.31c5.04,-7.65 10.77,-14.76 17.71,-20.82 5.71,-4.98 12.39,-10.31 19.61,-15.74l3.85 5.47c-15.24,10.48 -29.99,21.39 -41.17,31.09zm8.58 -117.55l8.16 -15.29c1.81,0.91 3.64,1.81 5.46,2.71l14.29 -26.65 -0 0.01 -9.5 17.79 26.25 14.02 2.86 2.74 -4.92 5.98 -17.33 12.17 -25.27 -13.5zm22.21 24.14l0.02 -0.01 8.95 12.77 -8.97 -12.75zm23.49 33.36l44.16 -31.1 225.64 121.03c25.86,8.53 44.8,4.97 57.75,-1.41l3.99 2.14c0,0 -23.45,39.38 -80.16,20.69l-225.64 -121.03 -21.77 15.33 -3.98 -5.65zm95.49 -67.24l210.29 -148.09c0.47,0.41 0.9,0.81 1.3,1.18l0.01 0c0.15,0.15 0.25,0.26 0.39,0.39 0.36,0.35 0.69,0.67 0.99,0.98 0.13,0.13 0.24,0.25 0.36,0.37 0.32,0.34 0.6,0.64 0.84,0.91l0.18 0.19c0.26,0.29 0.44,0.51 0.59,0.67l0.07 0.09c0.1,0.13 0.18,0.22 0.18,0.22l-208.39 146.75 -6.82 -3.66z"/>
   <path class="fil1" d="M165.23 365.69c18.45,-4.72 36.28,5.41 43.03,22.5 8.2,20.75 -1.64,44.56 -14.52,61.36 -20.03,26.09 -66.1,60.46 -98.06,32.33 -6.9,-6.07 -13.17,-17.69 -14.08,-26.93 -2.22,-22.84 11.77,-42.14 28.21,-56.08 15.34,-13 35.68,-28.15 55.42,-33.18zm-30.59 -21.8c-44.17,20.39 -114.23,62.47 -93.54,122.19 8.41,24.3 33.13,48.85 56.1,59.1 67.86,30.33 127.45,-58.64 154.72,-109.64 11.7,-21.85 21.57,-46.36 40.65,-63.02 11.27,-9.85 26.31,-20.98 41.87,-31.69l-38.59 -54.81c-17.14,11.28 -34.21,22.74 -52.76,31.59 -35.48,16.96 -72.76,29.82 -108.45,46.28z"/>
   <path class="fil2" d="M49.12 407.8c18.96,-29.13 56.97,-50.67 84.93,-63.64 -27.95,12.95 -65.97,34.5 -84.93,63.64l0 0z"/>
   <path class="fil3" d="M37.4 442.58c0.44,-12.56 4.82,-24.17 11.72,-34.77l0 0c-6.89,10.61 -11.27,22.21 -11.72,34.77z"/>
   <path class="fil2" d="M134.28 344.06c0.12,-0.06 0.23,-0.11 0.36,-0.17 23.13,-10.67 46.91,-19.84 70.45,-29.57l0 0.01c-23.54,9.73 -47.33,18.88 -70.45,29.56 -0.13,0.06 -0.24,0.11 -0.36,0.17z"/>
   <path class="fil4" d="M37.4 442.6l0 -0.03c0.44,-12.56 4.83,-24.17 11.72,-34.77 18.96,-29.13 56.97,-50.69 84.93,-63.64 0.08,-0.04 0.16,-0.07 0.23,-0.11 0.12,-0.06 0.23,-0.11 0.36,-0.17 23.12,-10.67 46.91,-19.83 70.45,-29.56 -0.58,0.58 -1.13,1.19 -1.71,1.77 -12.78,12.83 -28.32,25.28 -44.88,32.81 -13.95,6.35 -28.09,11.04 -41.33,19 -13.21,7.95 -25.82,17.12 -36.93,27.83 -8.94,8.6 -17.75,18.06 -21.63,30.12 -1.75,5.38 -2.74,10.97 -2.94,16.59 -0.16,4.49 0.19,8.98 1.07,13.41 9.52,48.02 61.86,72.88 104.38,50.02 12.41,-6.67 26.2,-16.52 35.56,-27.14 11.33,-12.86 21.9,-26.66 30.94,-41.25 18.5,-29.84 31.83,-63.51 54.41,-90.7 12.57,-15.16 28.14,-26.65 44.42,-37.25l2.65 3.77 0.04 -0.04 5.31 7.54c-15.57,10.71 -30.6,21.84 -41.87,31.69 -19.09,16.67 -28.96,41.17 -40.65,63.02 -23.78,44.45 -72.09,117.74 -129.04,115.76 -8.39,-0.28 -16.97,-2.22 -25.68,-6.11 -22.97,-10.25 -47.69,-34.8 -56.1,-59.1l0 0c-2.82,-8.16 -3.96,-15.98 -3.69,-23.48l0 0z"/>
   <path class="fil5" d="M329.1 313.32l329.14 -231.79c0,0 -28.05,-36.27 -82.08,-10.85l-230.17 162.09 -19.96 24.34 -24.36 17.11 27.43 39.1z"/>
   <path class="fil6" d="M654.63 77.72c0,0 0,0 0,-0.01 1.27,1.21 2.21,2.2 2.81,2.89 -0.6,-0.69 -1.53,-1.68 -2.81,-2.88zm3.61 3.82l0 0 0 0z"/>
   <path class="fil7" d="M301.68 274.22l7.03 -4.93 17.33 -12.17 4.92 -5.98 3.2 3.06c-2.84,4.61 -6.33,8.85 -10.77,12.53 -3.98,3.27 -11.29,7.47 -11.5,13.39 -0.02,0.57 0.03,1.16 0.15,1.77 0.6,2.94 2.88,5.64 4.69,7.93 2.51,3.17 5.07,7.02 8.47,9.36 7.1,4.89 13.85,-1.55 19.69,-5.65 7.14,-5.03 14.28,-10.05 21.43,-15.09l7 3.75 -44.2 31.13 -2.65 -3.77 -11.83 -16.87 -8.95 -12.77 -3.99 -5.7zm116.06 -31.88c22.81,-16.15 45.48,-32.51 68.02,-49.05 31.22,-22.91 62.09,-46.32 93.65,-68.75 24.1,-17.15 50.31,-30.98 75.23,-46.82 1.27,1.2 2.21,2.19 2.81,2.88 0.53,0.58 0.79,0.93 0.8,0.94l0 0 0 0 -233.61 164.51 -6.89 -3.7z"/>
   <path class="fil8" d="M179.33 350.83c0.13,-3.73 16.77,-8.58 20.38,-10.51 11.69,-6.31 22.11,-15.66 33.34,-22.64 9.06,-5.62 18.42,-9.2 27.49,-14.58 11.08,-6.56 20.76,-15.79 31.51,-22.96 1.29,-0.88 18.57,21.3 19.24,24.51 0.16,0.77 0.22,1.49 0.2,2.21 -0.24,6.93 -8.89,10.97 -13.58,15.41 -7,6.63 -13.78,13.07 -21.09,19.49 -14.22,12.52 -27.12,24.5 -34.89,41.92 -2.39,5.35 -9.36,34.41 -17.46,29.77 -3.33,-1.91 -3.47,-8.88 -3.26,-15.01 0.03,-0.92 0.07,-1.83 0.11,-2.68 0.04,-0.87 0.08,-1.69 0.1,-2.47 0.05,-1.37 0.06,-2.56 -0.02,-3.44 -0.56,-6.48 -1.1,-11.59 -4.64,-17 -8.21,-12.56 -19.7,-16.08 -32.86,-19.19 -3.32,-0.78 -4.62,-1.76 -4.58,-2.82z"/>
   <path class="fil8" d="M63.59 446.5c0.27,-7.69 3.25,-15.47 6.38,-22.58 1.29,-2.96 3.6,-4.83 5.22,-7.51 1.91,-3.16 2.33,-7.26 6.26,-8.79 3.93,-1.53 4.94,0.95 4.83,4.06 -0.08,2.2 -0.71,4.7 -1.26,6.35 -3.37,10.02 -7.49,20.04 -7.86,30.61 -0.03,0.73 -0.04,1.44 -0.02,2.16 0.15,10.46 0.88,16.24 7.56,24.83 5.21,6.7 10.46,12.12 17.54,16.68 6.34,4.1 13.76,6.79 21.32,7.2 3.79,0.21 8.94,0.05 12.79,-0.92 4.33,-1.09 7.77,-4.01 11.87,-5.72 5.14,-2.15 10.4,-4.09 15.58,-6.13 6.31,-2.5 11.36,-7.17 16.44,-11.51 2.42,-2.07 8.31,-9.24 9.78,-4.19 0.13,0.47 0.19,0.93 0.17,1.41 -0.15,4.23 -5.68,9.17 -8.13,11.26 -5.14,4.32 -11.31,6.45 -17.44,8.96 -5.49,2.24 -9.83,6.31 -15.41,8.45 -4.67,1.79 -9.46,3.2 -14.34,4.31 -17.29,3.91 -37.09,-5.17 -49.2,-17.35 -9.01,-9.06 -14.3,-17.65 -19.74,-29.39 -1.83,-3.96 -2.48,-8.09 -2.33,-12.21z"/>
   <path class="fil1" d="M96.3 133.83c-18,-11.83 -34.22,-29.3 -34.77,-52.24 -0.22,-9.3 4.61,-21.58 10.72,-28.44 28.32,-31.77 78.22,-3.24 101.26,20.24 14.8,15.12 27.46,37.56 21.83,59.16 -4.64,17.77 -21.11,29.98 -39.99,27.53 -20.22,-2.61 -42.24,-15.19 -59.04,-26.24zm144.56 84.42c19.48,6.55 37.82,15.84 56.19,24.97l31.68 -59.08c-16.75,-8.74 -33.02,-17.99 -45.39,-26.39 -20.98,-14.25 -33.72,-37.36 -47.98,-57.65 -33.26,-47.33 -103.16,-128.42 -166.86,-90.14 -21.56,12.96 -43.12,40.33 -48.54,65.47 -13.31,61.79 61.32,95.09 107.64,109.99 37.42,12.03 75.98,20.29 113.25,32.83z"/>
   <path class="fil3" d="M146.13 191.08c18.24,5.32 36.66,10.07 54.98,15.16 0.01,0.01 0.01,0.01 0.02,0.01 -18.33,-5.08 -36.75,-9.84 -55,-15.17z"/>
   <path class="fil4" d="M18.45 87.47c0.14,-3.89 0.64,-7.91 1.53,-12.04 5.42,-25.14 26.98,-52.5 48.54,-65.47 12.34,-7.42 24.93,-10.35 37.43,-9.92 51.99,1.81 102.61,61.91 129.42,100.06 14.25,20.28 27,43.4 47.98,57.65 12.37,8.4 28.64,17.65 45.39,26.39l-4.37 8.14 -0.03 -0.02 -2.16 4.05c-17.45,-8.54 -34.29,-18.07 -48.61,-31.6 -25.7,-24.26 -43.01,-56.07 -64.98,-83.47 -10.73,-13.36 -22.89,-25.8 -35.7,-37.2 -10.58,-9.41 -25.46,-17.51 -38.59,-22.64 -44.96,-17.55 -93.91,13.48 -97.55,62.27 -0.05,0.74 -0.1,1.49 -0.12,2.24 -0.33,9.42 1.66,18.79 5.61,27.33 5.32,11.49 15.22,19.82 25.12,27.29 12.33,9.29 25.96,16.84 40.03,23.14 14.11,6.33 28.71,9.26 43.33,13.87 17.36,5.47 34.27,15.96 48.51,27.15 0.65,0.51 1.27,1.03 1.9,1.55 -18.32,-5.09 -36.74,-9.83 -54.98,-15.16 -6.2,-1.81 -12.38,-3.69 -18.52,-5.66l0 0c-43.22,-13.91 -111.08,-43.82 -109.17,-97.95z"/>
   <path class="fil5" d="M324.34 192.26l354.76 190.27c0,0 -23.45,39.39 -80.16,20.69l-248.08 -133.07 -22.76 -21.75 -26.25 -14.02 22.5 -42.12z"/>
   <polygon class="fil9" points="301.84,234.38 311.34,216.58 301.84,234.38 328.09,248.4 330.95,251.14 330.95,251.14 328.09,248.4 "/>
   <path class="fil7" d="M330.95 251.14l0 0zm3.2 3.06l0 0 11.53 11.01c0.01,0.01 0.01,0.01 0.01,0.02l-11.54 -11.04z"/>
   <polygon class="fil10" points="330.95,251.14 330.95,251.14 334.15,254.19 334.15,254.19 "/>
   <path class="fil7" d="M301.84 234.38l9.5 -17.79 10.84 -20.28 2.16 -4.05 354.76 190.27c0,0 -1.02,1.7 -3.12,4.21 -26.64,-12.71 -54.34,-23.26 -80.33,-37.37 -34.05,-18.45 -67.52,-37.94 -101.28,-56.92 -33.75,-18.96 -67.66,-37.5 -101.84,-55.66 -16.73,-8.89 -33.44,-17.85 -50.13,-26.79 -6.29,-3.38 -13.76,-8.95 -20.24,-3.23 -3.09,2.72 -5.15,6.88 -7.26,10.32 -1.51,2.49 -3.47,5.44 -3.7,8.44 -0,0.11 -0.01,0.22 -0.01,0.34 -0.24,6.74 8.43,10.33 13.12,13.34 10.04,6.42 16.31,15.77 21.39,26l-11.53 -11.01 -3.2 -3.06 0 0 -2.86 -2.74 -26.25 -14.02z"/>
   <path class="fil8" d="M171.12 172.89c0.04,-0.98 1.26,-2.03 4.22,-3.12 12.68,-4.69 23.67,-9.56 30.29,-23 1.89,-3.82 2.49,-7.34 2.62,-11.15 0.07,-2 0.01,-4.08 -0.06,-6.31 -0.13,-3.53 -2.26,-11.69 -2.05,-17.63 0.1,-2.75 0.69,-5.03 2.22,-6.17 7.49,-5.57 17.92,22.43 20.94,27.45 9.82,16.35 24.08,26.68 39.7,37.39 8.04,5.5 15.55,11.07 23.29,16.8 5.6,4.15 15.74,7.29 15.45,15.38 -0,0.16 -0.01,0.33 -0.02,0.49 -0.29,3.26 -14.76,27.36 -16.15,26.65 -11.54,-5.82 -22.27,-13.81 -34.05,-18.98 -9.65,-4.23 -19.37,-6.64 -29.05,-11.13 -11.99,-5.57 -23.47,-13.6 -35.83,-18.44 -3.9,-1.53 -21.65,-4.42 -21.52,-8.22z"/>
   <path class="fil8" d="M44.33 86.6c0.08,-2.28 0.45,-4.57 1.19,-6.85 3.98,-12.29 8.2,-21.47 16.05,-31.56 10.56,-13.55 29.11,-24.95 46.74,-23.16 4.99,0.5 9.91,1.34 14.77,2.55 5.79,1.44 10.58,4.96 16.3,6.52 6.39,1.73 12.77,3.09 18.39,6.78 2.88,1.88 9.65,6.6 9.49,11.07 -0.01,0.18 -0.02,0.35 -0.05,0.53 -0.86,5.21 -7.58,-1.21 -10.2,-2.96 -5.58,-3.7 -11.17,-7.73 -17.72,-9.44 -5.39,-1.41 -10.85,-2.7 -16.2,-4.2 -4.29,-1.2 -8.06,-3.71 -12.48,-4.26 -3.94,-0.48 -9.07,-0.02 -12.8,0.65 -7.47,1.31 -14.5,4.87 -20.29,9.71 -6.48,5.4 -11.04,11.41 -15.4,18.69 -3.58,5.97 -4.88,10.5 -5.06,15.71 -0.11,2.94 0.15,6.1 0.55,9.86 1.21,11.31 6.93,21.4 11.79,31.58 0.97,2.03 2.24,5.47 2.15,7.96 -0.08,2.18 -1.19,3.64 -4.44,2.82 -4.09,-1.05 -5,-5.06 -7.27,-7.97 -1.94,-2.47 -4.46,-4.06 -6.09,-6.81 -4.92,-8.31 -9.76,-17.68 -9.42,-27.21z"/>
   <path class="fil11" d="M153.52 30.93c0,0 -1.62,-0.84 -4.5,-2.11 -2.83,-1.38 -7.06,-2.95 -12.09,-4.68 -2.56,-0.78 -5.28,-1.69 -8.23,-2.36 -2.92,-0.85 -6.07,-1.26 -9.28,-1.87 -3.22,-0.47 -6.59,-0.71 -9.97,-0.86 -3.39,0.06 -6.84,-0.11 -10.21,0.55 -1.7,0.24 -3.43,0.29 -5.08,0.68 -1.65,0.43 -3.28,0.86 -4.91,1.29 -3.33,0.63 -6.27,2.28 -9.3,3.37 -1.55,0.51 -2.89,1.38 -4.23,2.15 -1.36,0.78 -2.7,1.53 -3.99,2.28 -2.71,1.32 -4.76,3.35 -6.92,4.86 -2.05,1.65 -4.21,2.91 -5.67,4.51 -1.57,1.51 -2.95,2.82 -4.08,3.9 -2.29,2.16 -3.68,3.36 -3.68,3.36l-0.06 0.05c-0.3,0.26 -0.75,0.23 -1.01,-0.07 -0.2,-0.25 -0.23,-0.59 -0.06,-0.85 0,0 0.99,-1.53 2.86,-4.15 0.96,-1.31 2.11,-2.91 3.44,-4.73 1.21,-1.95 3.15,-3.63 5.13,-5.62 2.07,-1.89 4,-4.33 6.8,-6.01 1.34,-0.93 2.71,-1.89 4.11,-2.86 1.39,-1.01 2.85,-1.98 4.51,-2.65 1.63,-0.77 3.27,-1.53 4.94,-2.31 0.84,-0.37 1.66,-0.82 2.54,-1.13l2.71 -0.75c1.81,-0.5 3.64,-1.01 5.48,-1.51 1.85,-0.45 3.77,-0.55 5.66,-0.84 3.8,-0.62 7.61,-0.36 11.35,-0.32 1.88,-0.07 3.69,0.4 5.51,0.62 1.79,0.32 3.6,0.42 5.3,0.93 3.43,0.82 6.73,1.68 9.71,2.88 3.06,0.99 5.77,2.35 8.29,3.54 4.99,2.48 8.82,5.11 11.42,6.98 2.62,1.88 3.94,3.18 3.94,3.18 0.15,0.13 0.15,0.36 0.02,0.5 -0.1,0.12 -0.29,0.14 -0.43,0.07z"/>
   <path class="fil11" d="M564.34 371.5c0,0 -2.05,-0.79 -5.55,-2.29 -3.47,-1.57 -8.52,-3.64 -14.44,-6.4 -5.93,-2.73 -12.79,-6.02 -20.08,-9.67 -7.31,-3.6 -15,-7.66 -22.69,-11.68 -7.64,-4.15 -15.29,-8.28 -22.35,-12.33 -7.09,-4.03 -13.65,-7.88 -19.22,-11.29 -5.59,-3.37 -10.12,-6.41 -13.36,-8.42 -3.2,-2.07 -4.99,-3.32 -4.99,-3.32 -0.33,-0.23 -0.4,-0.67 -0.18,-1 0.19,-0.26 0.54,-0.37 0.85,-0.25 0,0 2.03,0.8 5.54,2.32 3.46,1.58 8.49,3.68 14.39,6.47 5.92,2.76 12.76,6.08 20.03,9.77 7.29,3.64 14.96,7.73 22.64,11.79 7.61,4.2 15.24,8.36 22.29,12.44 7.07,4.06 13.61,7.95 19.16,11.4 5.58,3.38 10.1,6.45 13.32,8.48 3.2,2.08 4.99,3.35 4.99,3.35 0.16,0.11 0.2,0.34 0.08,0.5 -0.09,0.14 -0.26,0.18 -0.41,0.13z"/>
   <path class="fil12" d="M367.32 260.72c-5.83,-3.12 -8.02,-10.36 -4.9,-16.19 3.12,-5.84 10.38,-8.02 16.2,-4.9 5.83,3.12 8.02,10.38 4.89,16.2 -3.12,5.84 -10.39,8.03 -16.2,4.89z"/>
   <path class="fil5" d="M368.47 260.46c-5.06,-2.71 -6.96,-9.01 -4.25,-14.09 2.71,-5.05 9.01,-6.94 14.07,-4.24 5.06,2.71 6.96,9.01 4.26,14.07 -2.72,5.06 -9.02,6.96 -14.07,4.25z"/>
   <path class="fil13" d="M366.77 252.8c0.04,-1.23 0.46,-2.46 1.11,-3.38 1.7,-2.41 4.58,-4.78 7.81,-3.68 1.48,0.51 3.06,2.24 3.96,3.48 0.64,0.88 1.31,2.53 1.27,3.77 -0,0.15 -0.02,0.31 -0.05,0.45 -0.32,1.46 -2.13,2.03 -3.35,2.49 -2.51,1 -5.94,2.06 -8.56,0.88 -1.63,-0.75 -2.24,-2.36 -2.19,-4.01z"/>
  </g>
 </g>
</svg>
